<svg width="111" height="24" viewBox="0 0 111 24" fill="none" xmlns="http://www.w3.org/2000/svg">
<path d="M0.144531 0.279297H33.3703L19.8568 23.7636H15.1678L8.94887 8.29519H13.7206L18.1741 19.0558L26.4563 4.02467H2.16774L0.144531 0.279297Z" fill="#81EBAB"/>
<path d="M77.1852 12.5533C77.5011 11.6656 77.9577 10.8892 78.5571 10.2298C79.1566 9.57045 79.8671 9.0601 80.6858 8.7007L80.6874 8.69993L80.6892 8.69925C81.5307 8.33858 82.4553 8.16156 83.4572 8.16156C84.5007 8.16156 85.4218 8.36832 86.2043 8.8003C86.8661 9.15696 87.4206 9.64733 87.8663 10.2655L91.2289 7.58536C90.5895 6.61932 89.6749 5.86102 88.4672 5.31363C87.1292 4.70718 85.5837 4.39844 83.8212 4.39844C82.0361 4.39844 80.4164 4.68063 78.9574 5.23887C77.5137 5.79839 76.2743 6.58989 75.2341 7.6122L75.2328 7.61349L75.2315 7.61476C74.1908 8.61953 73.3823 9.81327 72.8058 11.2003C72.2312 12.5831 71.9414 14.0968 71.9414 15.7462C71.9414 17.3766 72.3256 18.8024 73.0836 20.0369C73.842 21.2534 74.9195 22.2108 76.3305 22.9075C77.7569 23.6026 79.4379 23.9572 81.3847 23.9572C83.0958 23.9572 84.6411 23.6935 86.0252 23.1725C87.2835 22.6818 88.4141 21.8799 89.4152 20.7552L86.7229 18.1095C86.0784 18.7857 85.372 19.2952 84.6034 19.6273C83.7483 20.0049 82.8515 20.194 81.9168 20.194C80.878 20.194 79.9544 20.0078 79.1585 19.62L79.1527 19.6172L79.147 19.6142C78.3739 19.2073 77.7653 18.6422 77.3321 17.9201L77.3285 17.9142L77.3251 17.9081C76.9128 17.1661 76.7128 16.3201 76.7128 15.3821C76.7128 14.3688 76.8687 13.4246 77.1852 12.5533Z" fill="#81EBAB"/>
<path fill-rule="evenodd" clip-rule="evenodd" d="M32.9292 19.7587H41.9261L42.7118 23.5675H47.3521L42.3935 4.79297H36.7612L25.9102 23.5675H30.7352L32.9292 19.7587ZM39.5539 8.25816L41.2539 16.4996H34.8065L39.5539 8.25816Z" fill="#81EBAB"/>
<path d="M64.2491 16.2323L66.5321 4.79297H71.1187L67.3638 23.5675H63.3734L56.4618 12.0972L54.1727 23.5675H49.5859L53.3408 4.79297H57.3317L64.2491 16.2323Z" fill="#81EBAB"/>
<path d="M96.9232 20.1125L97.7975 15.6978H106.525L107.175 12.3827H98.4532L99.2718 8.24802H109.16L109.86 4.79297H95.3598L91.6055 23.5675H106.473L107.196 20.1125H96.9232Z" fill="#81EBAB"/>
</svg>
